PathFileType	4	(X/Y/Z)	OpenSim_Sub04_EMGStiffKnee_Gyro.trc
DataRate	CameraRate	NumFrames	NumMarkers	Units	OrigDataRate	OrigDataStartFrame	OrigNumFrames
100	100	41	8	m	100	1	8277
Frame#	Time	torso_imu_offset_imu	pelvis_imu_offset_imu	tibia_r_imu_offset_imu	femur_r_imu_offset_imu	tibia_l_imu_offset_imu	femur_l_imu_offset_imu	toes_r_imu_offset_imu	toes_l_imu_offset_imu
				X1	Y1	Z1	X2	Y2	Z2	X3	Y3	Z3	X4	Y4	Z4	X5	Y5	Z5	X6	Y6	Z6	X7	Y7	Z7	X8		Y8	Z8	

1	0	-0.01064932	-0.11506066	-0.02703427	-0.01911396	-0.00448003	-0.00557097	-0.00752285	-0.00912385	0.00868567	-0.01607371	0.00180348	-0.01225717	0.02575023	0.00940185	-0.00526848	-0.02523817	-0.00015736	0.02274982	-0.00640402	0.01630017	0.01552446	0.00215594	0.01709527	0.00165163
2	0.01000000	-0.01351736	-0.12900284	-0.03633331	-0.02535309	-0.00571281	-0.00888590	-0.02359105	-0.01003306	0.00348642	-0.01238829	0.00736461	-0.00726777	0.00925746	0.01080750	-0.00139547	-0.03725667	-0.00342402	0.02200760	-0.00856260	0.01664597	0.01535821	-0.00157807	0.01494618	-0.00054385
3	0.02000000	-0.01967422	-0.14159762	-0.04884051	-0.03188904	-0.00928073	-0.01121983	-0.03066921	-0.00951203	-0.00398147	-0.01156478	0.01000420	0.00168123	-0.00122418	0.00619490	-0.00043724	-0.04484176	-0.00580107	0.02032327	-0.00691269	0.01595544	0.01222322	-0.00029815	0.01575027	-0.00057959
4	0.03000000	-0.01798913	-0.14438132	-0.05994030	-0.03462425	-0.00918191	-0.01874630	-0.03253462	-0.00970457	-0.00633340	-0.01851349	0.01189184	0.00685298	-0.01049549	0.00970191	0.00397882	-0.05498065	-0.00754944	0.01917793	-0.00113015	0.01609653	0.00843942	-0.00297334	0.01404537	0.00181296
5	0.04000000	-0.01232065	-0.14343211	-0.06735143	-0.03890558	-0.00710527	-0.02019449	-0.03537444	-0.01389746	-0.00588369	-0.02760277	0.00784545	0.00955835	-0.01546659	0.01468883	0.00989770	-0.05280689	-0.00664953	0.01603764	-0.00166634	0.01433495	0.00794510	-0.00506973	0.01094501	0.00082638
6	0.05000000	-0.00266314	-0.14464263	-0.06534700	-0.04136581	-0.00998091	-0.01832650	-0.03084525	-0.01374011	-0.00734661	-0.03386967	0.00984935	0.01178349	-0.01373551	0.01206691	0.01243699	-0.05684456	-0.01076532	0.01521789	0.00033039	0.00977091	0.00652344	-0.00935550	0.01255735	0.00038589
7	0.06000000	0.00623321	-0.14080424	-0.06828609	-0.03695906	-0.01694599	-0.02477440	-0.02265580	-0.01137435	-0.00756112	-0.04018680	0.01001976	0.01239157	-0.01806162	0.01266093	0.01740660	-0.06503000	-0.01748496	0.01562718	-0.00528583	0.01206902	0.00397315	-0.00390204	0.00903923	0.00217179
8	0.07000000	0.00885344	-0.13392778	-0.06792179	-0.03845282	-0.01998451	-0.02419978	-0.01358378	-0.00942175	-0.00819641	-0.04714089	0.00789186	0.01163372	-0.01820902	0.01631139	0.02427399	-0.06581530	-0.01716510	0.01484253	-0.00363645	0.01052950	-0.00009028	-0.00552797	0.00487786	0.00374719
9	0.08000000	0.00837405	-0.12581477	-0.06367952	-0.03963304	-0.02498246	-0.01889473	-0.00678594	-0.00282590	-0.00757176	-0.05294525	0.00840231	0.01464219	-0.01461544	0.01306878	0.02787868	-0.06843404	-0.01251302	0.01362785	0.00279176	0.00440296	0.00096710	-0.01218133	0.00733197	0.00126993
10	0.09000000	0.01151712	-0.11578677	-0.06813739	-0.03814741	-0.03159440	-0.01701417	-0.00011894	-0.00227253	-0.00896106	-0.04797311	0.00621839	0.01745141	-0.01240559	0.01103650	0.02914106	-0.06466589	-0.00858433	0.00929334	-0.00302721	0.00697015	0.00283086	-0.00375608	0.00707839	0.00038883
11	0.10000000	0.01543771	-0.10954427	-0.06853331	-0.03747006	-0.03668321	-0.01894373	0.00415596	-0.00806837	-0.01273163	-0.04220444	0.00854112	0.01776203	-0.01201846	0.01287435	0.03133373	-0.06131600	-0.00310340	0.00552942	-0.00458429	0.01258506	0.00303045	-0.00770111	0.00475021	0.00047325
12	0.11000000	0.02001615	-0.10022090	-0.06763549	-0.03800259	-0.03455702	-0.01803367	0.00014687	-0.00740875	-0.01610105	-0.03826427	0.00674887	0.02100884	-0.01280943	0.01573735	0.03346791	-0.06197010	0.00109483	0.00401825	-0.00622524	0.01501899	0.00634498	-0.01063524	0.00342216	0.00186405
13	0.12000000	0.02250581	-0.08911450	-0.06509761	-0.04022721	-0.03445207	-0.01564960	0.00339145	-0.00468563	-0.02391442	-0.03083188	0.00584552	0.02151448	-0.00942768	0.01670813	0.03388026	-0.05664872	-0.00297927	0.00673635	-0.00774438	0.01112786	0.00450851	-0.00971194	0.00616328	0.00550781
14	0.13000000	0.02515160	-0.07529021	-0.05993344	-0.04108070	-0.03035908	-0.01874118	-0.00122741	-0.00921759	-0.02863651	-0.02521448	0.00430079	0.02312923	-0.00679796	0.01482115	0.03245194	-0.04771254	-0.00563548	0.00726610	-0.00357786	0.01108043	0.00564998	-0.01124664	0.00927108	0.00359745
15	0.14000000	0.03374403	-0.07029351	-0.05467700	-0.04173999	-0.02252575	-0.01526680	-0.00077667	-0.01552925	-0.02132628	-0.02201871	0.00426430	0.02268497	-0.01098322	0.01387879	0.03190735	-0.04352776	-0.00721779	0.00409524	-0.00223744	0.01436780	0.00614695	-0.00851511	0.00960727	0.00083576
16	0.15000000	0.03610189	-0.06682373	-0.05490767	-0.04250046	-0.02633644	-0.01654762	0.00609611	-0.01672079	-0.01998510	-0.01488932	0.00397374	0.02002016	-0.01144890	0.01466556	0.03331329	-0.03953630	-0.00833960	0.00960595	0.00457136	0.01459051	0.00552161	-0.00660504	0.00923634	0.00186289
17	0.16000000	0.04134504	-0.05645443	-0.05860394	-0.04153229	-0.02881012	-0.01950508	0.00117535	-0.01609946	-0.01958105	-0.00698726	-0.00056763	0.01935354	-0.00715542	0.01191622	0.03179586	-0.04006642	-0.00778005	0.01476995	0.01049701	0.01668965	0.00614375	-0.00146375	0.00963650	0.00109842
18	0.17000000	0.04716934	-0.04455743	-0.06187756	-0.04079074	-0.02715484	-0.01393354	0.00243773	-0.01228075	-0.01973445	-0.00340750	-0.00459034	0.01664032	-0.01059180	0.00785642	0.02644839	-0.04240353	-0.00738045	0.01619174	0.00727587	0.01747777	0.00707001	0.00210903	0.01367405	0.00048493
19	0.18000000	0.05170924	-0.02379896	-0.06301883	-0.03962189	-0.02548266	-0.01423401	0.00819410	-0.01090741	-0.02367454	-0.00598699	-0.00324849	0.01806119	-0.01625888	0.00886272	0.02631019	-0.04173259	-0.00370866	0.01889109	0.00422240	0.01448815	0.00858859	0.00203076	0.01817329	-0.00135901
20	0.19000000	0.06061584	-0.00327734	-0.06625237	-0.04279747	-0.02192476	-0.01251731	0.00767010	-0.01222097	-0.02132614	-0.00919604	-0.00301443	0.01613594	-0.00469394	0.00884882	0.02361223	-0.04164024	-0.00298304	0.02266376	0.00437067	0.01634763	0.00797665	0.00425355	0.02164817	-0.00481478
21	0.20000000	0.07137053	0.02278434	-0.06177183	-0.04834686	-0.01837705	-0.00990089	0.00799686	-0.01247046	-0.01771976	-0.01672061	0.00004233	0.01370619	-0.00137485	0.00340863	0.01871951	-0.04655308	-0.00727329	0.02935573	0.00424694	0.01453009	0.00784383	0.00312128	0.01934539	-0.00315825
22	0.21000000	0.08477891	0.04656586	-0.04861856	-0.04637570	-0.01527931	-0.00968050	0.00917548	-0.01490370	-0.01646045	-0.02911166	0.00326160	0.01042981	-0.00283267	0.00535228	0.01975837	-0.04831808	-0.00857767	0.03125055	0.00455596	0.00872914	0.00867628	0.00198496	0.02165964	-0.00553010
23	0.22000000	0.10095131	0.06867985	-0.04388605	-0.05057595	-0.00994073	-0.01107509	0.00646899	-0.01340688	-0.01507983	-0.04030564	0.00667302	0.00839046	-0.00946810	0.01052464	0.02159115	-0.04414396	-0.00396641	0.03107556	0.00489847	0.01113147	0.01050155	0.00495437	0.02471506	-0.00813199
24	0.23000000	0.11929970	0.08956673	-0.03185360	-0.05119437	-0.00611615	-0.01118088	0.00715118	-0.01210843	-0.01407372	-0.05425352	0.01387968	0.01094785	-0.03405645	0.01377405	0.01763216	-0.04492294	0.00018556	0.03486295	-0.00043148	0.01399010	0.01001852	0.00511569	0.02177937	-0.00966508
25	0.24000000	0.13713675	0.10380822	-0.01388830	-0.05159882	0.00045284	-0.01141976	0.01184090	-0.00429929	-0.01452317	-0.06094776	0.01926214	0.01282728	-0.05156562	0.01762241	0.01512021	-0.04404601	0.00009166	0.03611253	-0.00762642	0.01389488	0.01372888	0.00106176	0.02034546	-0.00711657
26	0.25000000	0.12405755	0.08760677	-0.02153256	-0.05665472	0.00974653	-0.01554595	0.01646948	0.00247635	-0.01500111	-0.05781231	0.02664801	0.01585990	-0.06360832	0.01915831	0.01490336	-0.04469452	0.00087016	0.03219131	-0.00877223	0.01171838	0.01426022	-0.00147435	0.01865368	-0.00495703
27	0.26000000	0.12528068	0.09613420	-0.01765320	-0.06106119	0.01987290	-0.02044281	0.01716442	0.00264564	-0.01389850	-0.05296314	0.03116633	0.01878748	-0.07115098	0.01780199	0.01211671	-0.04813318	-0.00289195	0.02849762	-0.00936143	0.01255410	0.01406112	-0.00305611	0.01810683	-0.00138369
28	0.27000000	0.14527162	0.13356031	0.00564975	-0.07040179	0.02768310	-0.02884492	0.01408758	0.00566246	-0.01270189	-0.05007102	0.03267578	0.02036480	-0.06641215	0.01465950	0.01166880	-0.04746053	-0.01074950	0.02639410	-0.01296343	0.01323248	0.01443880	-0.00651582	0.01452338	-0.00016372
29	0.28000000	0.14769286	0.15116655	0.01262494	-0.07436602	0.03634706	-0.03905363	0.01147687	0.00738127	-0.00639832	-0.05218602	0.03028366	0.02022820	-0.05096468	0.00972128	0.01104523	-0.05682446	-0.01435579	0.02417822	-0.00989996	0.01411735	0.01249607	-0.00627936	0.01632365	0.00337545
30	0.29000000	0.15686795	0.17132088	0.01220460	-0.07592676	0.04844091	-0.04474183	0.00661293	0.00211423	-0.00415260	-0.05977479	0.02397769	0.02082829	-0.03856802	0.00663814	0.01161128	-0.06692577	-0.01559495	0.02123140	-0.00781773	0.01681687	0.01009406	-0.00839824	0.02040990	0.00445005
31	0.30000000	0.17266145	0.18081006	0.01135916	-0.08078646	0.05608493	-0.05295245	-0.00843172	-0.00370518	-0.00041505	-0.06237234	0.02005021	0.01985177	-0.02868173	0.00384914	0.01563914	-0.06751883	-0.01367452	0.01847094	-0.00992588	0.01509356	0.01046033	-0.00661193	0.01378751	-0.00072963
32	0.31000000	0.18395699	0.19935013	0.00657276	-0.08643665	0.06393574	-0.06225638	-0.02482131	-0.00802240	0.00350191	-0.06673849	0.01992108	0.01469214	-0.00991506	-0.00109272	0.01678827	-0.06476979	-0.01175998	0.01889059	-0.00650138	0.01657779	0.00699462	-0.00032040	0.01083967	-0.00363401
33	0.32000000	0.18119557	0.22083990	0.00156804	-0.09213480	0.07459537	-0.06594215	-0.03924004	-0.00822948	0.00307617	-0.07261907	0.01981295	0.01147330	0.00017410	0.00003336	0.01866939	-0.06034364	-0.00869607	0.02091270	-0.00671097	0.01455718	0.00143569	0.00181779	0.01142467	-0.00812921
34	0.33000000	0.17247146	0.24228362	0.00827722	-0.09523089	0.08374028	-0.06742165	-0.04884229	-0.00456157	0.00927115	-0.07776036	0.02220725	0.00684842	-0.00544295	0.00208490	0.01806467	-0.05357829	-0.00202161	0.02651675	-0.00739360	0.01188900	0.00521299	0.00290663	0.00851929	-0.00782339
35	0.34000000	0.15547320	0.26411097	0.01362222	-0.09657125	0.09383564	-0.07138988	-0.05522643	-0.00356851	0.01233336	-0.08127012	0.02517007	0.00471614	-0.00489993	0.00281180	0.01238457	-0.03681057	-0.00008786	0.03571643	-0.00747239	0.01233668	0.00564098	0.00412383	0.00659019	-0.00851109
36	0.35000000	0.12579748	0.27836036	0.01590453	-0.09672147	0.10175979	-0.07583182	-0.06393188	0.00048599	0.01072917	-0.08446154	0.03164562	0.00262450	-0.01420658	0.00388916	0.00585707	-0.02280255	-0.00235558	0.03928077	-0.01191108	0.01329653	0.00635071	0.00537931	0.00395033	-0.00926899
37	0.36000000	0.08972963	0.28219007	0.01115679	-0.09640185	0.11057594	-0.07809984	-0.05624055	0.00252957	0.01532882	-0.09144534	0.03596072	-0.00235940	-0.03160451	0.00393345	-0.00116810	-0.01929423	-0.00562657	0.04687711	-0.01319590	0.01776522	0.00768769	0.00201430	0.00784635	-0.00844107
38	0.37000000	0.05251312	0.28279059	0.00220544	-0.09631449	0.11629245	-0.08111231	-0.04616478	0.00288712	0.02075392	-0.10098561	0.03428977	-0.00476078	-0.04343277	0.00516505	-0.00145118	-0.02211291	-0.01109203	0.05188516	-0.01285057	0.01897048	0.00981603	-0.00395202	0.00993776	-0.00588311
39	0.38000000	0.00691177	0.27939407	-0.02033732	-0.09572218	0.12168477	-0.07948954	-0.04400508	0.00244506	0.01882512	-0.11404936	0.03332958	-0.00643536	-0.04530367	0.00741811	-0.00274295	-0.02593087	-0.01291969	0.05460124	-0.00919346	0.01478985	0.00732393	-0.00179472	0.00920598	-0.00487310
40	0.39000000	-0.05659719	0.27417364	-0.05632605	-0.09515441	0.12748448	-0.07491567	-0.03771140	0.00345562	0.02126610	-0.12061507	0.03564891	-0.00541080	-0.05104892	0.01056362	-0.00667741	-0.03574434	-0.00906146	0.05641925	-0.01145796	0.01196761	0.00644525	-0.00247033	0.00890106	-0.00252199
41	0.40000000	-0.12517574	0.27871673	-0.08100635	-0.08888531	0.12928667	-0.07121628	-0.02914081	0.00793547	0.02233836	-0.11556962	0.03872005	-0.00621658	-0.05434417	0.01127791	-0.00524729	-0.04433114	-0.00585683	0.05377240	-0.00884781	0.01297108	0.00888031	-0.00618456	0.00833654	-0.00281344
